<svg width="1400" height="980" viewBox="0 0 1400 980" fill="none" xmlns="http://www.w3.org/2000/svg">
  <rect width="1400" height="980" fill="#0E0F10"/>
  <rect x="1" y="1" width="1398" height="978" stroke="rgba(255,255,255,0.18)" stroke-width="2"/>
  <g opacity="0.46" stroke="#D9D9D9" stroke-width="2">
    <line x1="700" y1="490" x2="1280" y2="115"/>
    <line x1="700" y1="490" x2="1360" y2="248"/>
    <line x1="700" y1="490" x2="1390" y2="390"/>
    <line x1="700" y1="490" x2="1384" y2="550"/>
    <line x1="700" y1="490" x2="1328" y2="718"/>
    <line x1="700" y1="490" x2="1200" y2="854"/>
    <line x1="700" y1="490" x2="1016" y2="920"/>
    <line x1="700" y1="490" x2="822" y2="955"/>
    <line x1="700" y1="490" x2="578" y2="955"/>
    <line x1="700" y1="490" x2="384" y2="920"/>
    <line x1="700" y1="490" x2="200" y2="854"/>
    <line x1="700" y1="490" x2="72" y2="718"/>
    <line x1="700" y1="490" x2="16" y2="550"/>
    <line x1="700" y1="490" x2="10" y2="390"/>
    <line x1="700" y1="490" x2="40" y2="248"/>
    <line x1="700" y1="490" x2="120" y2="115"/>
  </g>
  <path d="M701 291C809 291 897 379 897 487C897 595 809 683 701 683C593 683 505 595 505 487C505 379 593 291 701 291Z" stroke="#D0D0D0" stroke-opacity="0.6" stroke-width="3"/>
  <path d="M701 363C770 363 825 418 825 487C825 556 770 611 701 611C632 611 577 556 577 487C577 418 632 363 701 363Z" fill="#050505" stroke="#B9B9B9" stroke-opacity="0.25" stroke-width="2"/>
</svg>
